HIERARCHY
ROOT root
{
	OFFSET	0	13.1	24.9
	CHANNELS 6  Xposition Yposition Zposition Xrotation Yrotation Zrotation
	JOINT spine_1
	{
		OFFSET	0	9.99999	0
		CHANNELS 3  Xrotation Yrotation Zrotation
		JOINT spine_2
		{
			OFFSET	0	112	-10
			CHANNELS 3  Xrotation Yrotation Zrotation
			JOINT spine_3
			{
				OFFSET	0	206.5	19.3
				CHANNELS 3  Xrotation Yrotation Zrotation
				JOINT spine_4
				{
					OFFSET	0	110.4	14.6
					CHANNELS 3  Xrotation Yrotation Zrotation
					JOINT neck_1
					{
						OFFSET	0	71.8	-50.3
						CHANNELS 3  Xrotation Yrotation Zrotation
						JOINT neck_2
						{
							OFFSET	0	86.2	-25.8
							CHANNELS 3  Xrotation Yrotation Zrotation
							JOINT head_ee
							{
								OFFSET	0	179.8	-8.7
								CHANNELS 3  Xrotation Yrotation Zrotation
								End Site
								{
									OFFSET	1	0	0
								}
							}
						}
					}
					JOINT left_clavicle
					{
						OFFSET	-43.2	22.4	-70.8
						CHANNELS 3  Xrotation Yrotation Zrotation
						JOINT left_shoulder
						{
							OFFSET	-93.9	-5.79999	48.7
							CHANNELS 3  Xrotation Yrotation Zrotation
							JOINT left_elbow
							{
								OFFSET	-291.4	-30.8	15.2
								CHANNELS 3  Xrotation Yrotation Zrotation
								JOINT left_lowarm_twist
								{
									OFFSET	-110.7	-3.89999	13.6
									CHANNELS 3  Xrotation Yrotation Zrotation
									JOINT left_hand
									{
										OFFSET	-110.7	-3.89999	13.6
										CHANNELS 3  Xrotation Yrotation Zrotation
										JOINT left_ee
										{
											OFFSET	-80.8	-5.10001	12.1
											CHANNELS 3  Xrotation Yrotation Zrotation
											End Site
											{
												OFFSET	1	0	0
											}
										}
									}
								}
							}
						}
					}
					JOINT right_clavicle
					{
						OFFSET	43.2	22.4	-70.8
						CHANNELS 3  Xrotation Yrotation Zrotation
						JOINT right_shoulder
						{
							OFFSET	93.9	-5.79999	48.7
							CHANNELS 3  Xrotation Yrotation Zrotation
							JOINT right_elbow
							{
								OFFSET	291.4	-30.8	15.2
								CHANNELS 3  Xrotation Yrotation Zrotation
								JOINT right_lowarm_twist
								{
									OFFSET	110.7	-3.89999	13.6
									CHANNELS 3  Xrotation Yrotation Zrotation
									JOINT right_hand
									{
										OFFSET	110.7	-3.89999	13.6
										CHANNELS 3  Xrotation Yrotation Zrotation
										JOINT right_ee
										{
											OFFSET	80.8	-5.10001	12.1
											CHANNELS 3  Xrotation Yrotation Zrotation
											End Site
											{
												OFFSET	1	0	0
											}
										}
									}
								}
							}
						}
					}
				}
			}
		}
	}
	JOINT left_hip
	{
		OFFSET	-82.8	-127.5	0.300001
		CHANNELS 3  Xrotation Yrotation Zrotation
		JOINT left_knee
		{
			OFFSET	-28.2	-396.7	2.2
			CHANNELS 3  Xrotation Yrotation Zrotation
			JOINT left_ankle
			{
				OFFSET	-11.7	-411.3	35.4
				CHANNELS 3  Xrotation Yrotation Zrotation
				JOINT left_toes
				{
					OFFSET	0	-60	-88.6
					CHANNELS 3  Xrotation Yrotation Zrotation
					JOINT left_foot_ee
					{
						OFFSET	-22.5	-16.5	-42.2
						CHANNELS 3  Xrotation Yrotation Zrotation
						End Site
						{
							OFFSET	1	0	0
						}
					}
				}
			}
		}
	}
	JOINT right_hip
	{
		OFFSET	82.8	-127.5	0.300001
		CHANNELS 3  Xrotation Yrotation Zrotation
		JOINT right_knee
		{
			OFFSET	28.2	-396.7	2.2
			CHANNELS 3  Xrotation Yrotation Zrotation
			JOINT right_ankle
			{
				OFFSET	11.7	-411.3	35.4
				CHANNELS 3  Xrotation Yrotation Zrotation
				JOINT right_toes
				{
					OFFSET	0	-60	-88.6
					CHANNELS 3  Xrotation Yrotation Zrotation
					JOINT right_foot_ee
					{
						OFFSET	22.5	-16.5	-42.2
						CHANNELS 3  Xrotation Yrotation Zrotation
						End Site
						{
							OFFSET	1	0	0
						}
					}
				}
			}
		}
	}
}
MOTION
Frames: 6
Frame Time: 0.02
2530.5 706.245 -1083.37 -17.6359 49.2392 19.8792 3.80832 -0.267484 -0.343521 3.80835 -0.245083 -0.359845 3.80988 -0.190419 -0.391529 3.80975 -0.249864 -0.356542 -5.28803 14.5895 2.17126 -5.16847 25.3019 4.79301 -0.0 0.0 -0.0 1.82863 14.8029 4.68088 -31.1839 -25.3258 67.5092 0.554559 -15.3611 0.0747882 21.4567 0.250562 -2.71347 1.5412 9.10427 13.8467 -0.0 0.0 -0.0 11.4627 17.9521 -22.8368 -5.80221 14.1461 -60.6219 2.04065 45.3046 -0.8517 40.5363 0.377451 5.05799 0.345816 -1.29913 -2.84871 0.0 0.0 0.0 35.2964 3.95769 -15.3516 3.73447 -0.171702 -0.547172 -9.65474 8.4686 1.4387 -6.45764 0.0 0.0 -0.0 0.0 -0.0 6.28064 17.2437 -4.54789 -23.4115 -0.239553 -3.55977 28.2538 23.4945 4.25913 24.5308 -0.0 -0.0 0.0 0.0 0.0 
2501.32 704.784 -1088.42 -16.9712 48.6081 19.4724 3.7528 -0.139271 -0.581939 3.75298 -0.10196 -0.589621 3.75394 -0.0149564 -0.598185 3.75346 -0.109239 -0.588316 -3.96223 15.1307 3.0068 -3.74695 25.4261 5.4642 -0.0 0.0 -0.0 2.01221 14.3984 4.95043 -29.7751 -25.5689 67.2754 0.540088 -14.9785 0.0710013 21.5633 0.249256 -2.72702 1.53836 9.25111 13.8813 -0.0 0.0 -0.0 11.4436 17.6177 -22.8119 -7.51868 13.0683 -59.9106 1.93517 43.7852 -0.777705 40.0563 0.352194 5.00204 0.620382 -1.81306 -4.88982 0.0 0.0 0.0 35.3403 3.69581 -15.4131 1.91756 -0.0837008 -0.282329 -10.1162 6.31953 1.50969 -5.44422 0.0 0.0 -0.0 0.0 -0.0 6.47949 19.4168 -4.34734 -25.7729 -0.182628 -3.91765 26.072 20.7159 3.8831 24.2113 -0.0 -0.0 0.0 0.0 0.0 
2480.14 705.049 -1090.89 -17.3643 48.7451 19.5917 3.7062 -0.246027 -0.70612 3.70645 -0.200597 -0.720344 3.70885 -0.0929177 -0.741956 3.70815 -0.208927 -0.717972 -3.81557 15.1943 2.95643 -3.58872 25.5524 5.39315 -0.0 0.0 -0.0 2.17194 13.6311 5.16242 -28.6745 -25.8967 67.4762 0.56495 -15.635 0.0775647 21.5427 0.249511 -2.7244 1.46533 9.37832 13.4427 -0.0 0.0 -0.0 11.3163 16.4497 -22.5823 -8.61574 12.1533 -60.4623 1.80817 41.8472 -0.691375 39.3478 0.315774 4.91906 0.365876 -1.7001 -3.14791 0.0 0.0 0.0 34.6158 3.72538 -14.9412 -0.336758 0.0137198 0.0498578 -6.53684 3.80615 0.972863 -3.86602 0.0 0.0 -0.0 0.0 -0.0 6.29783 20.4831 -3.85939 -26.9904 -0.147523 -4.1012 26.2278 18.2603 3.82217 23.5575 -0.0 -0.0 0.0 0.0 0.0 
2456.85 706.53 -1095.15 -16.5529 48.5723 18.1724 3.62812 -0.198856 -0.690927 3.62837 -0.154488 -0.70218 3.63015 -0.0489775 -0.717303 3.62947 -0.161645 -0.700567 -4.72789 15.7486 3.50812 -4.54629 26.3448 6.23009 -0.0 0.0 -0.0 1.86175 13.8835 4.6713 -27.5311 -26.2394 67.6711 0.571042 -15.7952 0.0792147 21.0252 0.255594 -2.65859 1.28411 8.45571 11.9016 -0.0 0.0 -0.0 11.2574 15.8153 -22.4775 -9.07343 12.0849 -60.9662 1.58096 38.0639 -0.545386 39.5414 0.325625 4.94178 0.290551 -1.56307 -2.58992 0.0 0.0 0.0 33.8789 4.11015 -14.1745 -4.39796 0.155929 0.656778 -0.967829 1.87462 0.142894 -3.16378 0.0 0.0 -0.0 0.0 -0.0 5.59599 19.2632 -2.56934 -26.1707 -0.171588 -3.9777 23.0294 14.9126 3.33568 24.1939 -0.0 -0.0 0.0 0.0 0.0 
2424.46 709.134 -1102.49 -15.8285 49.197 17.5951 3.43956 -0.172014 -0.725687 3.43985 -0.12549 -0.735161 3.44134 -0.0129617 -0.745681 3.44059 -0.130562 -0.734277 -4.90312 16.3331 3.49835 -4.72016 27.4721 6.35658 -0.0 0.0 -0.0 1.88996 13.7727 4.70978 -26.7897 -26.4335 67.6535 0.535186 -14.8486 0.0697397 20.5925 0.260225 -2.6035 0.981293 8.28174 9.83882 -0.0 0.0 -0.0 11.084 15.4703 -22.1001 -10.608 10.988 -61.113 1.38859 34.5209 -0.431465 39.4332 0.320108 4.92908 0.167091 -2.83306 -2.296 0.0 0.0 0.0 33.7134 4.38244 -13.9081 -10.1693 0.283287 1.53291 6.76308 1.74901 -0.977533 -0.949511 0.0 0.0 -0.0 0.0 -0.0 5.64642 19.664 -2.38896 -28.5704 -0.0961622 -4.33823 21.1232 11.1144 3.01833 24.4096 -0.0 -0.0 0.0 0.0 0.0 
2396.25 710.512 -1112.96 -14.348 49.9757 16.2943 3.34408 -0.14623 -0.634157 3.34429 -0.105582 -0.642176 3.34539 -0.00624193 -0.650768 3.34482 -0.108938 -0.641616 -6.07672 15.8696 4.13763 -5.98246 26.3849 7.17118 -0.0 0.0 -0.0 0.980734 13.4852 3.19802 -25.714 -26.9479 67.7243 0.590231 -16.2982 0.0845189 20.8106 0.257943 -2.63127 0.792357 8.18253 8.56101 -0.0 0.0 -0.0 10.7684 15.0523 -21.4068 -13.6683 10.0571 -62.5345 1.22589 31.2678 -0.343067 39.5032 0.323674 4.9373 0.472699 -1.69211 -3.85595 0.0 0.0 0.0 32.541 4.30704 -13.5393 -13.79 0.317921 2.08729 11.0844 -0.245759 -1.58518 -0.428367 0.0 0.0 -0.0 0.0 -0.0 5.47496 19.5863 -2.39614 -32.1762 0.0454215 -4.87339 23.6482 7.12314 3.26792 24.6221 -0.0 -0.0 0.0 0.0 0.0 
